<svg xmlns="http://www.w3.org/2000/svg" xmlns:xlink="http://www.w3.org/1999/xlink" width="40.44" height="37.596" viewBox="0 0 40.44 37.596">
  <defs>
    <filter id="_75dcfce61b8c5e4b1f5cf9fe9a41e4c6" x="0" y="0" width="40.44" height="37.596" filterUnits="userSpaceOnUse">
      <feOffset dx="1" dy="1" input="SourceAlpha"/>
      <feGaussianBlur stdDeviation="2" result="blur"/>
      <feFlood flood-opacity="0.161"/>
      <feComposite operator="in" in2="blur"/>
      <feComposite in="SourceGraphic"/>
    </filter>
  </defs>
  <g transform="matrix(1, 0, 0, 1, 0, 0)" filter="url(#_75dcfce61b8c5e4b1f5cf9fe9a41e4c6)">
    <path id="_75dcfce61b8c5e4b1f5cf9fe9a41e4c6-2" data-name="75dcfce61b8c5e4b1f5cf9fe9a41e4c6" d="M21.244,0a7.19,7.19,0,0,1,7.2,7.181h0V18.415a7.192,7.192,0,0,1-7.2,7.181H7.2A7.191,7.191,0,0,1,0,18.415H0V7.181A7.182,7.182,0,0,1,7.2,0H21.244Zm1.608,7.394a1.081,1.081,0,0,0-.8.284h0L15.642,12.8a2.227,2.227,0,0,1-2.844,0h0L6.4,7.679A1.087,1.087,0,0,0,4.876,9.2h0l.186.185,6.47,5.048a4.478,4.478,0,0,0,5.559,0h0L23.506,9.3l.114-.114A1.1,1.1,0,0,0,23.6,7.764,1.2,1.2,0,0,0,22.852,7.394Z" transform="translate(5 5)"/>
  </g>
</svg>
